HIERARCHY
ROOT Hips
{
	OFFSET 0.000000 0.000000 0.000000 
	CHANNELS 6 Xposition Yposition Zposition Yrotation Zrotation Xrotation 
	JOINT Lumbar
	{
		OFFSET 0.000000 0.000000 0.000000 
		CHANNELS 3 Zrotation Xrotation Yrotation
		JOINT Neck
		{
			OFFSET 0.000000 0.445665 0.000000 
			CHANNELS 3 Zrotation Xrotation Yrotation
			End Site
			{
				OFFSET 0.000000 0.227535 0.000000 
			}
		}
		JOINT RightShoulder
		{
			OFFSET 0.019635 0.377685 0.194865 
			CHANNELS 3 Zrotation Xrotation Yrotation
			JOINT RightElbow
			{
				OFFSET 0.000000 -0.243375 0.000000 
				CHANNELS 2 Zrotation Yrotation
				JOINT RightWrist
				{
					OFFSET 0.000000 -0.264825 0.000000 
					CHANNELS 2 Zrotation Xrotation
					End Site
					{
						OFFSET 0.006600 -0.176220 0.000990 
					}
				}
			}
		}
		JOINT LeftShoulder
		{
			OFFSET 0.019635 0.377685 -0.194865 
			CHANNELS 3 Zrotation Xrotation Yrotation
			JOINT LeftElbow
			{
				OFFSET 0.000000 -0.243375 0.000000 
				CHANNELS 2 Zrotation Yrotation
				JOINT LeftWrist
				{
					OFFSET 0.000000 -0.264825 0.000000 
					CHANNELS 2 Zrotation Xrotation
					End Site
					{
						OFFSET 0.006600 -0.176220 -0.000990 
					}
				}
			}
		}
	}
	JOINT RightHip
	{
		OFFSET 0.052140 -0.069960 0.075570 
		CHANNELS 3 Zrotation Xrotation Yrotation
		JOINT RightKnee
		{
			OFFSET 0.000000 -0.402270 0.000000 
			CHANNELS 1 Zrotation
			JOINT RightAnkle
			{
				OFFSET 0.000000 -0.404085 0.000000 
				CHANNELS 3 Zrotation Xrotation Yrotation
				End Site
				{
					OFFSET 0.204105 -0.089430 0.008415 
				}
			}
		}
	}
	JOINT LeftHip
	{
		OFFSET 0.052140 -0.069960 -0.075570 
		CHANNELS 3 Zrotation Xrotation Yrotation
		JOINT LeftKnee
		{
			OFFSET 0.000000 -0.402270 0.000000 
			CHANNELS 1 Zrotation
			JOINT LeftAnkle
			{
				OFFSET 0.000000 -0.404085 0.000000 
				CHANNELS 3 Zrotation Xrotation Yrotation
				End Site
				{
					OFFSET 0.204105 -0.089430 -0.008415 
				}
			}
		}
	}
}
MOTION
Frames: 22
Frame Time: 0.02
0.00097 0.00329 0.01095 48.53461 -23.38154 -10.10431 36.90925 3.70502 1.33851 21.84867 -5.14966 -1.11922 84.42343 -12.88527 48.60085 28.14321 100.82185 -17.02222 -8.26905 88.65525 2.74304 -58.662 28.82642 -98.49429 -12.94218 9.26841 35.88881 -0.13996 -7.11214 -19.19626 -6.34133 -1.7627 -3.29435 53.71845 7.64454 -2.56876 -39.80473 -6.98406 2.12805 3.28949
0.00314 0.0035 0.01017 48.53029 -23.5598 -10.13558 37.47625 3.72383 1.26484 21.23314 -4.97301 -1.12185 84.0897 -13.82812 48.41628 29.34827 100.5415 -16.9102 -8.20471 88.17241 3.98699 -57.69582 30.15822 -98.21534 -12.6967 9.20324 35.96127 -0.11871 -7.50131 -19.20552 -6.33845 -1.76223 -3.27263 52.88084 7.40341 -2.16565 -39.10186 -6.93662 2.14794 3.29579
0.0053 0.0037 0.0094 48.52617 -23.73798 -10.16668 38.04218 3.74233 1.19091 20.61867 -4.79621 -1.12448 83.75485 -14.77021 48.23016 30.55488 100.26259 -16.79919 -8.14053 87.68795 5.2302 -56.72994 31.49167 -97.93384 -12.45069 9.13707 36.03379 -0.09768 -7.88955 -19.21474 -6.33556 -1.76173 -3.25097 52.04523 7.16286 -1.76344 -38.39949 -6.88931 2.16773 3.30205
0.00746 0.0039 0.00863 48.5219 -23.91576 -10.19785 38.60756 3.76104 1.11738 20.00492 -4.61999 -1.12711 83.42188 -15.71045 48.04581 31.75691 99.9833 -16.68766 -8.07639 87.20624 6.47077 -55.76637 32.82017 -97.65509 -12.2057 9.07188 36.10606 -0.07651 -8.27758 -19.22397 -6.33268 -1.76126 -3.22932 51.21007 6.92244 -1.36159 -37.69847 -6.84201 2.18756 3.30833
0.00963 0.0041 0.00785 48.51732 -24.09345 -10.22921 39.17373 3.78014 1.0443 19.39034 -4.44419 -1.12974 83.09061 -16.65078 47.86381 32.95587 99.70209 -16.5748 -8.01209 86.72691 7.71109 -54.80331 34.14519 -97.38045 -11.96188 9.00824 36.17821 -0.05508 -8.66638 -19.23324 -6.32981 -1.76082 -3.20762 50.3732 6.68151 -0.9588 -36.99767 -6.79458 2.20747 3.31463
0.01178 0.0043 0.00707 48.51413 -24.27266 -10.25974 39.7391 3.7974 0.9686 18.77612 -4.26529 -1.13237 82.74817 -17.59658 47.66906 34.1787 99.4279 -16.46764 -7.94815 86.23147 8.96036 -53.83147 35.49645 -97.08474 -11.71138 8.9368 36.2515 -0.03491 -9.05339 -19.24236 -6.32689 -1.7602 -3.18605 49.54033 6.4418 -0.55771 -36.29212 -6.74753 2.227 3.3208
0.01395 0.0045 0.00631 48.50824 -24.44858 -10.29194 40.30549 3.81833 0.89824 18.16205 -4.09281 -1.135 82.42911 -18.52996 47.50015 35.35101 99.14059 -16.34934 -7.8836 85.77007 10.1898 -52.87887 36.79256 -96.83093 -11.47414 8.88088 36.32236 -0.01218 -9.44371 -19.25178 -6.32407 -1.75994 -3.16423 48.7002 6.19984 -0.15413 -35.59664 -6.69976 2.24734 3.32727
0.01611 0.0047 0.00553 48.50471 -24.62758 -10.32252 40.87091 3.83591 0.82297 17.54749 -3.91446 -1.13763 82.08752 -19.47547 47.30744 36.57198 98.86407 -16.24092 -7.81956 85.27532 11.43834 -51.90762 38.14108 -96.53999 -11.22552 8.81112 36.39555 0.00812 -9.83074 -19.26089 -6.32117 -1.75936 -3.14265 47.867 5.96007 0.24802 -34.89236 -6.65268 2.26683 3.33341
0.01826 0.00491 0.00473 48.50461 -24.81033 -10.35147 41.43562 3.84922 0.74153 16.93329 -3.7285 -1.14026 81.72171 -20.43388 47.08506 37.84564 98.60594 -16.14621 -7.75631 84.74681 12.70806 -50.91628 39.54908 -96.19696 -10.95932 8.72231 36.4713 0.02569 -10.21491 -19.26978 -6.31811 -1.75833 -3.12131 47.04084 5.7224 0.64521 -34.17479 -6.6063 2.2857 3.33935
0.02047 0.00508 0.00405 48.4864 -24.97147 -10.39086 42.00589 3.88654 0.69506 16.31986 -3.58503 -1.14286 81.5052 -21.31236 47.03163 38.79586 98.25766 -15.97754 -7.68901 84.43353 13.84952 -50.0486 40.60124 -96.13338 -10.7832 8.73666 36.53148 0.05968 -10.61904 -19.28041 -6.31579 -1.75971 -3.09846 46.16984 5.47089 1.06132 -33.52602 -6.55546 2.30939 3.34703
0.02254 0.00534 0.00313 48.50534 -25.17818 -10.40754 42.56335 3.8736 0.57521 15.70316 -3.35282 -1.14554 80.96759 -22.36283 46.62309 40.44077 98.08951 -15.96171 -7.62997 83.65314 15.26524 -48.91524 42.41213 -95.49357 -10.42424 8.53766 36.62498 0.05859 -10.97877 -19.28707 -6.31201 -1.75612 -3.07885 45.39636 5.24976 1.4436 -32.73724 -6.51431 2.32209 3.35067
0.02427 0.00587 0.00153 48.63565 -25.51154 -10.36696 43.09443 3.71831 0.24879 15.09083 -2.86723 -1.14844 79.59004 -23.86257 45.21828 43.90859 98.50632 -16.39631 -7.59633 81.68202 17.41019 -47.0821 46.25975 -93.14522 -9.49789 7.71136 36.80722 -0.03582 -11.23438 -19.28527 -6.3034 -1.73772 -3.06776 44.86897 5.10265 1.67984 -31.51755 -6.49786 2.31126 3.34628
0.02585 0.00648 -0.00029 48.80127 -25.89028 -10.30277 43.61091 3.51357 -0.1502 14.47297 -2.29446 -1.15141 77.88286 -25.53865 43.46069 48.08675 99.0892 -16.97893 -7.57071 79.22392 19.83313 -44.97575 50.8755 -90.24133 -8.3995 6.6784 37.02342 -0.16585 -11.44207 -19.27912 -6.29348 -1.71452 -3.05997 44.44355 4.98753 1.89028 -30.166 -6.49146 2.28839 3.33736
0.02747 0.00705 -0.00199 48.94489 -26.24732 -10.24584 44.12853 3.33407 -0.51279 13.84864 -1.7679 -1.15435 76.29904 -27.14963 41.879 51.99791 99.53439 -17.47318 -7.53935 76.93046 22.14649 -42.97654 55.1722 -87.67541 -7.42341 5.76755 37.2258 -0.28165 -11.66023 -19.27328 -6.28471 -1.6943 -3.05091 43.98542 4.86419 2.14947 -28.90516 -6.48179 2.2664 3.32839
0.02922 0.00764 -0.00377 49.11473 -26.60936 -10.20284 44.66984 3.14196 -0.89064 13.26126 -1.21292 -1.15732 74.82434 -28.69994 40.23168 55.68626 100.23444 -18.05559 -7.51594 74.87943 24.39715 -41.05262 59.35279 -84.74945 -6.26309 4.73801 37.42139 -0.38981 -11.9263 -19.27413 -6.27359 -1.67076 -3.04091 43.46965 4.71527 2.25936 -27.5137 -6.4669 2.26282 3.3279
0.03066 0.00821 -0.00544 49.23708 -26.97129 -10.12606 45.15769 2.96545 -1.25306 12.59681 -0.697 -1.16022 73.04654 -30.41532 38.63639 59.99275 100.45322 -18.49096 -7.47903 72.20282 26.83493 -38.90213 63.94587 -82.43915 -5.44278 3.90576 37.63924 -0.52164 -12.08089 -19.26044 -6.26703 -1.65291 -3.03363 43.09847 4.62592 2.66527 -26.36356 -6.46499 2.21922 3.30919
0.03132 0.00872 -0.00673 49.23033 -27.32541 -9.95491 45.50696 2.83493 -1.56219 11.7107 -0.30642 -1.16295 70.49323 -32.5684 37.28084 65.9507 99.21339 -18.47046 -7.39227 67.96648 29.79776 -36.23853 69.58298 -81.98979 -5.62973 3.67792 37.90922 -0.71574 -11.94239 -19.20392 -6.27379 -1.65267 -3.03335 43.09847 4.70446 3.97178 -25.9085 -6.4987 2.05791 3.23663
0.03167 0.0092 -0.00791 49.17279 -27.67715 -9.75193 45.80187 2.72344 -1.85206 10.74932 0.04098 -1.1656 67.64984 -34.87609 35.98777 72.4824 97.49962 -18.29927 -7.29314 63.11056 32.92301 -33.34952 75.5895 -82.17493 -6.16014 3.65424 38.20048 -0.93132 -11.69293 -19.13354 -6.28513 -1.65819 -3.03566 43.24102 4.8399 5.56332 -25.70159 -6.54473 1.85856 3.14671
0.03215 0.00967 -0.00914 49.13112 -28.02766 -9.56791 46.11815 2.60936 -2.14593 9.82883 0.40571 -1.16828 64.95212 -37.0974 34.66026 78.67541 96.06174 -18.20607 -7.20726 58.50392 35.92622 -30.53174 81.36769 -82.05314 -6.51584 3.53107 38.4828 -1.13341 -11.49213 -19.07204 -6.2941 -1.66054 -3.0366 43.32031 4.9417 6.97323 -25.38338 -6.58361 1.68344 3.06782
0.03269 0.01022 -0.01035 49.12007 -28.38963 -9.36377 46.44817 2.46835 -2.46191 8.87911 0.78359 -1.17101 62.18495 -39.39578 33.34739 85.22833 94.37604 -18.07828 -7.09148 54.00796 39.15079 -27.82948 87.43446 -81.98956 -6.94332 3.42855 38.7637 -1.35265 -11.2966 -18.9998 -6.3042 -1.66498 -3.03842 43.39671 5.07678 8.59984 -25.05418 -6.62927 1.47898 2.97567
0.03303 0.01061 -0.01159 49.03407 -28.72641 -9.19468 46.73661 2.38815 -2.72692 7.97347 1.12215 -1.17362 59.49723 -41.56445 32.02165 91.15106 93.08949 -17.98436 -7.03239 49.15155 41.93917 -24.84505 92.96967 -81.9637 -7.30616 3.33477 39.05158 -1.54059 -11.06501 -18.94631 -6.31309 -1.66657 -3.03903 43.51169 5.15651 9.84606 -24.80873 -6.66374 1.32626 2.90685
0.03291 0.01056 -0.01301 48.74172 -28.99522 -9.12707 46.92558 2.47529 -2.84992 7.19993 1.36662 -1.17593 57.10843 -43.36576 30.66333 95.25209 93.03786 -18.02274 -7.15471 43.36378 43.56714 -21.06762 97.0114 -81.88093 -7.39864 3.2108 39.35816 -1.63873 -10.75658 -18.95126 -6.31734 -1.65807 -3.03532 43.69746 5.06176 9.94621 -24.73285 -6.66318 1.33002 2.90864
